<svg width="50" height="50" viewBox="0 0 50 50" fill="none" xmlns="http://www.w3.org/2000/svg">
<g clip-path="url(#clip0_294_68)">
<path d="M7.81247 1.5625C7.81247 1.1481 7.97709 0.750671 8.27011 0.457646C8.56314 0.16462 8.96056 0 9.37497 0L40.625 0C41.0394 0 41.4368 0.16462 41.7298 0.457646C42.0228 0.750671 42.1875 1.1481 42.1875 1.5625C42.1875 3.24375 42.15 4.84375 42.0812 6.3625C43.316 6.56697 44.4974 7.01662 45.5556 7.68494C46.6138 8.35325 47.5275 9.2267 48.2428 10.2538C48.9581 11.2808 49.4605 12.4408 49.7204 13.6651C49.9802 14.8894 49.9923 16.1534 49.7559 17.3825C49.5194 18.6115 49.0393 19.7808 48.3438 20.8214C47.6482 21.8619 46.7514 22.7527 45.7061 23.4411C44.6608 24.1295 43.4883 24.6016 42.2576 24.8297C41.027 25.0577 39.7631 25.037 38.5406 24.7688C36.0718 30.5969 32.6718 33.4469 29.6875 34.1781V40.9688L34.1406 42.0812C34.7468 42.2312 35.3187 42.5031 35.8187 42.8781L41.5625 47.1875C41.8248 47.3843 42.0186 47.6586 42.1164 47.9716C42.2142 48.2846 42.211 48.6205 42.1073 48.9316C42.0036 49.2427 41.8046 49.5133 41.5386 49.7051C41.2725 49.8968 40.9529 50 40.625 50H9.37497C9.04702 50 8.7274 49.8968 8.46136 49.7051C8.19532 49.5133 7.99635 49.2427 7.89265 48.9316C7.78894 48.6205 7.78576 48.2846 7.88354 47.9716C7.98132 47.6586 8.17511 47.3843 8.43747 47.1875L14.1812 42.8781C14.6812 42.5031 15.2531 42.2312 15.8593 42.0812L20.3125 40.9688V34.1781C17.3281 33.4469 13.9281 30.5969 11.4593 24.7656C10.2362 25.0353 8.97137 25.0571 7.73963 24.8298C6.50788 24.6025 5.33417 24.1307 4.28782 23.4422C3.24146 22.7537 2.34368 21.8626 1.64748 20.8213C0.951291 19.7801 0.470807 18.6099 0.234407 17.3799C-0.00199277 16.1499 0.010486 14.8849 0.271106 13.6598C0.531727 12.4347 1.0352 11.2742 1.7518 10.2469C2.4684 9.21959 3.3836 8.3463 4.44333 7.6786C5.50306 7.0109 6.68585 6.56233 7.92184 6.35938C7.84827 4.76148 7.8118 3.16209 7.81247 1.5625ZM8.12184 9.5C6.49117 9.79837 5.04582 10.7323 4.10374 12.0963C3.16167 13.4604 2.80003 15.1428 3.0984 16.7734C3.39677 18.4041 4.3307 19.8495 5.69473 20.7915C7.05877 21.7336 8.74117 22.0952 10.3718 21.7969C9.33122 18.5156 8.53434 14.4656 8.12184 9.5ZM39.6312 21.7969C41.2619 22.0952 42.9443 21.7336 44.3083 20.7915C45.6724 19.8495 46.6063 18.4041 46.9047 16.7734C47.203 15.1428 46.8414 13.4604 45.8993 12.0963C44.9572 10.7323 43.5119 9.79837 41.8812 9.5C41.4656 14.4688 40.6687 18.5156 39.6312 21.7969ZM10.95 3.125C10.9718 4.74062 11.0312 6.26875 11.125 7.71563C11.5312 14.0531 12.5531 18.7969 13.8437 22.3C16.5437 29.625 20.2625 31.25 21.875 31.25C22.2894 31.25 22.6868 31.4146 22.9798 31.7076C23.2728 32.0007 23.4375 32.3981 23.4375 32.8125V40.9688C23.4374 41.6654 23.2046 42.3421 22.776 42.8913C22.3474 43.4405 21.7476 43.8307 21.0718 44L16.6156 45.1125C16.4133 45.1628 16.2231 45.2532 16.0562 45.3781L14.0625 46.875H35.9375L33.9437 45.3781C33.7759 45.2528 33.5846 45.1625 33.3812 45.1125L28.9281 44C28.2523 43.8307 27.6525 43.4405 27.2239 42.8913C26.7953 42.3421 26.5625 41.6654 26.5625 40.9688V32.8125C26.5625 32.3981 26.7271 32.0007 27.0201 31.7076C27.3131 31.4146 27.7106 31.25 28.125 31.25C29.7375 31.25 33.4562 29.625 36.1562 22.3C37.4468 18.8 38.4687 14.05 38.875 7.71563C38.9687 6.26875 39.0281 4.74062 39.05 3.125H10.95Z" fill="black"/>
</g>
<defs>
<clipPath id="clip0_294_68">
<rect width="50" height="50" fill="white"/>
</clipPath>
</defs>
</svg>
